<svg width="271" height="40" viewBox="0 0 271 40" fill="none" xmlns="http://www.w3.org/2000/svg">
<path d="M110.471 7.92969e-06H9.87062C9.50392 7.92969e-06 9.14162 7.92975e-06 8.77589 0.00200793C8.46974 0.00400793 8.16603 0.00981793 7.85694 0.0147079C7.18545 0.0226097 6.51554 0.0816842 5.85304 0.191418C5.19146 0.303541 4.55061 0.514924 3.95216 0.818418C3.35444 1.12448 2.80828 1.52218 2.33351 1.99708C1.85624 2.47064 1.4584 3.01802 1.15529 3.61817C0.851338 4.21712 0.640578 4.85895 0.530288 5.52149C0.418948 6.18319 0.359036 6.85253 0.351088 7.52349C0.341808 7.83009 0.340827 8.13771 0.335938 8.44435V31.5586C0.340827 31.8691 0.341808 32.1699 0.351088 32.4805C0.359038 33.1514 0.418951 33.8207 0.530288 34.4824C0.640273 35.1453 0.851046 35.7875 1.15529 36.3867C1.45826 36.9849 1.85616 37.5301 2.33351 38.001C2.80648 38.478 3.35299 38.876 3.95216 39.1797C4.55061 39.484 5.19139 39.6967 5.85304 39.8105C6.51566 39.9194 7.18549 39.9785 7.85694 39.9873C8.16603 39.9941 8.46974 39.998 8.77589 39.998C9.14161 40 9.50394 40 9.87062 40H110.471C110.83 40 111.195 40 111.555 39.998C111.859 39.998 112.172 39.9941 112.477 39.9873C113.147 39.9789 113.815 39.9198 114.477 39.8105C115.14 39.6959 115.783 39.4833 116.385 39.1797C116.983 38.8758 117.529 38.4779 118.002 38.001C118.478 37.5282 118.877 36.9835 119.184 36.3867C119.486 35.7871 119.694 35.145 119.803 34.4824C119.914 33.8206 119.976 33.1515 119.988 32.4805C119.992 32.1699 119.992 31.8691 119.992 31.5586C120 31.1953 120 30.834 120 30.4648V9.53614C120 9.16993 120 8.80665 119.992 8.44435C119.992 8.13771 119.992 7.83009 119.988 7.52345C119.976 6.85243 119.914 6.18324 119.803 5.52145C119.694 4.85929 119.485 4.21751 119.184 3.61813C118.566 2.4152 117.588 1.43603 116.385 0.818328C115.783 0.515575 115.14 0.304248 114.477 0.191328C113.815 0.0811107 113.147 0.0220157 112.477 0.0145679C112.172 0.00968793 111.859 0.00382793 111.555 0.00187793C111.195 -0.00012207 110.83 -0.00012207 110.471 -0.00012207V7.92969e-06Z" fill="#A6A6A6"/>
<path d="M8.7808 39.125C8.47612 39.125 8.1788 39.1211 7.87651 39.1143C7.2503 39.1061 6.62554 39.0516 6.00737 38.9512C5.43096 38.8519 4.87258 38.6673 4.35063 38.4033C3.83348 38.1415 3.36179 37.7983 2.95363 37.3867C2.53957 36.98 2.19485 36.5082 1.93312 35.9902C1.66851 35.4688 1.48539 34.9099 1.39012 34.333C1.28725 33.7131 1.23159 33.0863 1.22362 32.458C1.21728 32.2471 1.20898 31.5449 1.20898 31.5449V8.44434C1.20898 8.44434 1.21782 7.75293 1.22367 7.5498C1.2313 6.92248 1.28664 6.29665 1.3892 5.67773C1.48464 5.09925 1.66791 4.53875 1.93266 4.01563C2.19343 3.49794 2.53624 3.02586 2.9478 2.61768C3.35891 2.20562 3.83211 1.8606 4.35014 1.59521C4.87089 1.33209 5.42822 1.14873 6.00346 1.05127C6.62366 0.949836 7.25059 0.894996 7.87897 0.88721L8.78129 0.875H111.55L112.463 0.8877C113.086 0.895099 113.707 0.94945 114.321 1.05029C114.902 1.14898 115.466 1.33362 115.992 1.59814C117.03 2.13299 117.875 2.97916 118.407 4.01807C118.668 4.53758 118.848 5.09351 118.942 5.66699C119.046 6.29099 119.104 6.92174 119.116 7.5542C119.119 7.8374 119.119 8.1416 119.119 8.44434C119.127 8.81934 119.127 9.17627 119.127 9.53613V30.4648C119.127 30.8281 119.127 31.1826 119.119 31.54C119.119 31.8652 119.119 32.1631 119.115 32.4697C119.104 33.0909 119.046 33.7104 118.944 34.3232C118.851 34.9043 118.669 35.4675 118.404 35.9932C118.141 36.5056 117.798 36.9733 117.389 37.3789C116.98 37.7927 116.508 38.1379 115.989 38.4014C115.464 38.6674 114.902 38.8527 114.321 38.9512C113.703 39.0522 113.078 39.1067 112.452 39.1143C112.159 39.1211 111.853 39.125 111.555 39.125L110.471 39.127L8.7808 39.125Z" fill="black"/>
<path d="M25.1049 20.3011C25.1157 19.4665 25.3374 18.6481 25.7494 17.9221C26.1614 17.1962 26.7504 16.5862 27.4615 16.1491C27.0098 15.5039 26.4138 14.973 25.721 14.5984C25.0282 14.2239 24.2575 14.016 23.4703 13.9914C21.7911 13.8151 20.1631 14.9962 19.3074 14.9962C18.4352 14.9962 17.1177 14.0089 15.6989 14.0381C14.7813 14.0677 13.8869 14.3346 13.103 14.8126C12.3192 15.2907 11.6725 15.9637 11.226 16.7659C9.29201 20.1144 10.7346 25.0354 12.5872 27.742C13.5141 29.0674 14.5974 30.5478 16.0148 30.4953C17.4019 30.4378 17.9199 29.6108 19.5942 29.6108C21.253 29.6108 21.739 30.4953 23.1852 30.4619C24.6736 30.4378 25.6114 29.1307 26.5058 27.7928C27.1717 26.8484 27.6842 25.8047 28.0242 24.7003C27.1595 24.3346 26.4215 23.7224 25.9024 22.9401C25.3833 22.1578 25.1059 21.24 25.1049 20.3011Z" fill="white"/>
<path d="M22.3735 12.2113C23.185 11.2371 23.5848 9.98494 23.488 8.7207C22.2482 8.85092 21.1029 9.44348 20.2804 10.3803C19.8783 10.838 19.5703 11.3704 19.3741 11.9472C19.1778 12.524 19.0972 13.1337 19.1367 13.7417C19.7569 13.7481 20.3704 13.6137 20.931 13.3486C21.4917 13.0835 21.9849 12.6946 22.3735 12.2113Z" fill="white"/>
<path d="M42.6382 27.1397H37.9048L36.7681 30.4962H34.7632L39.2466 18.0782H41.3296L45.813 30.4962H43.7739L42.6382 27.1397ZM38.395 25.5909H42.147L40.2974 20.1436H40.2456L38.395 25.5909Z" fill="white"/>
<path d="M55.4956 25.9695C55.4956 28.7829 53.9898 30.5905 51.7173 30.5905C51.1417 30.6207 50.5692 30.4881 50.0654 30.2079C49.5616 29.9278 49.1469 29.5114 48.8687 29.0065H48.8257V33.4909H46.9673V21.4421H48.7661V22.948H48.8003C49.0913 22.4455 49.513 22.0313 50.0206 21.7495C50.5283 21.4676 51.1028 21.3287 51.6831 21.3474C53.9809 21.3474 55.4956 23.1638 55.4956 25.9695ZM53.5855 25.9695C53.5855 24.1365 52.6382 22.9314 51.1929 22.9314C49.773 22.9314 48.8179 24.1618 48.8179 25.9695C48.8179 27.7937 49.773 29.0154 51.1929 29.0154C52.6382 29.0154 53.5855 27.8191 53.5855 25.9695Z" fill="white"/>
<path d="M65.4605 25.9694C65.4605 28.7829 63.9546 30.5905 61.6822 30.5905C61.1065 30.6206 60.534 30.488 60.0302 30.2079C59.5264 29.9278 59.1117 29.5114 58.8335 29.0065H58.7905V33.4909H56.9321V21.4421H58.7309V22.948H58.7651C59.0561 22.4455 59.4778 22.0313 59.9854 21.7495C60.4931 21.4676 61.0676 21.3287 61.6479 21.3474C63.9458 21.3474 65.4605 23.1638 65.4605 25.9694ZM63.5503 25.9694C63.5503 24.1364 62.603 22.9314 61.1577 22.9314C59.7378 22.9314 58.7827 24.1618 58.7827 25.9694C58.7827 27.7937 59.7378 29.0153 61.1577 29.0153C62.6031 29.0153 63.5503 27.8191 63.5503 25.9694H63.5503Z" fill="white"/>
<path d="M72.0464 27.0362C72.1841 28.2676 73.3804 29.0762 75.0152 29.0762C76.5816 29.0762 77.7085 28.2676 77.7085 27.1572C77.7085 26.1934 77.0288 25.6162 75.4195 25.2207L73.8101 24.833C71.5298 24.2822 70.4712 23.2158 70.4712 21.4854C70.4712 19.3428 72.3384 17.8711 74.9898 17.8711C77.6138 17.8711 79.4126 19.3428 79.4732 21.4854H77.5972C77.4849 20.2461 76.4605 19.4981 74.9634 19.4981C73.4663 19.4981 72.4419 20.2549 72.4419 21.3565C72.4419 22.2344 73.0962 22.751 74.6968 23.1465L76.0649 23.4824C78.6128 24.0849 79.6714 25.1084 79.6714 26.9248C79.6714 29.248 77.8208 30.7031 74.8774 30.7031C72.1235 30.7031 70.2642 29.2822 70.144 27.0361L72.0464 27.0362Z" fill="white"/>
<path d="M83.6821 19.2999V21.4424H85.4038V22.9141H83.6821V27.9053C83.6821 28.6807 84.0269 29.0421 84.7837 29.0421C84.9881 29.0385 85.1921 29.0241 85.395 28.9991V30.4619C85.0547 30.5255 84.7089 30.5543 84.3628 30.5479C82.5298 30.5479 81.8149 29.8594 81.8149 28.1035V22.9141H80.4985V21.4424H81.8149V19.2999H83.6821Z" fill="white"/>
<path d="M86.4009 25.9698C86.4009 23.1212 88.0786 21.3311 90.6948 21.3311C93.3198 21.3311 94.9897 23.1211 94.9897 25.9698C94.9897 28.8262 93.3286 30.6085 90.6948 30.6085C88.062 30.6085 86.4009 28.8262 86.4009 25.9698ZM93.0962 25.9698C93.0962 24.0157 92.2007 22.8624 90.6948 22.8624C89.189 22.8624 88.2944 24.0245 88.2944 25.9698C88.2944 27.9317 89.189 29.0762 90.6948 29.0762C92.2007 29.0762 93.0961 27.9317 93.0961 25.9698H93.0962Z" fill="white"/>
<path d="M96.522 21.442H98.2944V22.983H98.3374C98.4574 22.5017 98.7393 22.0764 99.1359 21.7785C99.5325 21.4806 100.02 21.3284 100.515 21.3473C100.729 21.3465 100.943 21.3698 101.152 21.4166V23.1549C100.882 23.0723 100.599 23.0343 100.317 23.0426C100.047 23.0316 99.7778 23.0792 99.5279 23.1821C99.2781 23.285 99.0535 23.4408 98.8695 23.6386C98.6855 23.8365 98.5465 24.0719 98.4621 24.3286C98.3777 24.5852 98.3498 24.8571 98.3804 25.1256V30.4957H96.522L96.522 21.442Z" fill="white"/>
<path d="M109.72 27.837C109.47 29.4805 107.87 30.6085 105.822 30.6085C103.188 30.6085 101.553 28.8438 101.553 26.0128C101.553 23.1729 103.197 21.3311 105.744 21.3311C108.249 21.3311 109.824 23.0518 109.824 25.7969V26.4337H103.429V26.546C103.4 26.8792 103.441 27.2148 103.552 27.5307C103.662 27.8465 103.838 28.1353 104.068 28.3778C104.299 28.6204 104.578 28.8111 104.888 28.9374C105.197 29.0638 105.53 29.1227 105.865 29.1104C106.304 29.1516 106.745 29.0498 107.121 28.8204C107.498 28.591 107.791 28.246 107.956 27.837L109.72 27.837ZM103.438 25.1348H107.964C107.981 24.8352 107.936 24.5354 107.831 24.2542C107.726 23.973 107.565 23.7165 107.356 23.5007C107.148 23.2849 106.897 23.1146 106.619 23.0004C106.342 22.8862 106.044 22.8305 105.744 22.837C105.441 22.8352 105.141 22.8933 104.861 23.0081C104.581 23.1228 104.326 23.2919 104.112 23.5055C103.898 23.7191 103.728 23.9731 103.612 24.2528C103.496 24.5324 103.437 24.8322 103.438 25.1348V25.1348Z" fill="white"/>
<path d="M38.1621 8.73053C38.5517 8.70257 38.9427 8.76143 39.3068 8.90286C39.6709 9.04429 39.9991 9.26477 40.2677 9.5484C40.5363 9.83202 40.7386 10.1717 40.86 10.543C40.9814 10.9143 41.0188 11.3079 40.9697 11.6954C40.9697 13.6016 39.9395 14.6974 38.1621 14.6974H36.0068V8.73053H38.1621ZM36.9336 13.8535H38.0586C38.337 13.8702 38.6156 13.8245 38.8741 13.7199C39.1327 13.6153 39.3646 13.4543 39.5531 13.2488C39.7416 13.0432 39.8819 12.7982 39.9638 12.5316C40.0456 12.265 40.067 11.9834 40.0264 11.7075C40.0641 11.4327 40.0405 11.1529 39.9574 10.8883C39.8743 10.6236 39.7336 10.3806 39.5456 10.1767C39.3575 9.97273 39.1267 9.81292 38.8696 9.70868C38.6125 9.60445 38.3356 9.55836 38.0586 9.57374H36.9336V13.8535Z" fill="white"/>
<path d="M42.0164 12.4439C41.9881 12.1479 42.0219 11.8494 42.1158 11.5673C42.2096 11.2852 42.3614 11.0259 42.5613 10.8059C42.7613 10.5859 43.005 10.4102 43.2768 10.2899C43.5487 10.1696 43.8427 10.1075 44.1399 10.1075C44.4372 10.1075 44.7312 10.1696 45.003 10.2899C45.2749 10.4102 45.5186 10.5859 45.7185 10.8059C45.9185 11.0259 46.0702 11.2852 46.1641 11.5673C46.2579 11.8494 46.2918 12.1479 46.2635 12.4439C46.2923 12.7401 46.2589 13.0391 46.1653 13.3216C46.0717 13.6041 45.92 13.8639 45.72 14.0843C45.52 14.3048 45.2761 14.4809 45.004 14.6014C44.7319 14.722 44.4376 14.7842 44.1399 14.7842C43.8423 14.7842 43.548 14.722 43.2758 14.6014C43.0037 14.4809 42.7598 14.3048 42.5598 14.0843C42.3598 13.8639 42.2082 13.6041 42.1146 13.3216C42.021 13.0391 41.9875 12.7401 42.0164 12.4439ZM45.3494 12.4439C45.3494 11.4678 44.9109 10.897 44.1414 10.897C43.3689 10.897 42.9344 11.4678 42.9344 12.4439C42.9344 13.4278 43.369 13.9942 44.1414 13.9942C44.9109 13.9942 45.3494 13.4238 45.3494 12.4439H45.3494Z" fill="white"/>
<path d="M51.9092 14.6973H50.9873L50.0566 11.3809H49.9863L49.0596 14.6973H48.1465L46.9053 10.1943H47.8066L48.6133 13.6303H48.6797L49.6055 10.1943H50.458L51.3838 13.6303H51.4541L52.2568 10.1943H53.1455L51.9092 14.6973Z" fill="white"/>
<path d="M54.1895 10.1939H55.0449V10.9092H55.1113C55.224 10.6523 55.414 10.4369 55.6549 10.2931C55.8957 10.1493 56.1755 10.0842 56.4551 10.107C56.6742 10.0905 56.8942 10.1235 57.0988 10.2036C57.3034 10.2837 57.4873 10.4088 57.637 10.5697C57.7867 10.7305 57.8983 10.923 57.9635 11.1328C58.0287 11.3426 58.0458 11.5644 58.0137 11.7818V14.6968H57.125V12.0049C57.125 11.2813 56.8106 10.9214 56.1533 10.9214C56.0046 10.9145 55.8561 10.9398 55.718 10.9957C55.58 11.0515 55.4556 11.1365 55.3535 11.2449C55.2514 11.3533 55.1739 11.4825 55.1263 11.6236C55.0788 11.7647 55.0624 11.9145 55.0781 12.0625V14.6968H54.1895L54.1895 10.1939Z" fill="white"/>
<path d="M59.4297 8.43652H60.3184V14.6973H59.4297V8.43652Z" fill="white"/>
<path d="M61.5535 12.4439C61.5252 12.1479 61.5591 11.8493 61.6529 11.5673C61.7468 11.2852 61.8986 11.0258 62.0985 10.8058C62.2985 10.5858 62.5422 10.4101 62.8141 10.2898C63.086 10.1695 63.38 10.1074 63.6773 10.1074C63.9745 10.1074 64.2686 10.1695 64.5404 10.2898C64.8123 10.4101 65.056 10.5858 65.256 10.8058C65.4559 11.0258 65.6077 11.2852 65.7016 11.5673C65.7954 11.8493 65.8293 12.1479 65.801 12.4439C65.8298 12.7401 65.7964 13.0391 65.7027 13.3216C65.6091 13.6041 65.4574 13.8639 65.2574 14.0843C65.0574 14.3047 64.8135 14.4809 64.5414 14.6014C64.2692 14.7219 63.9749 14.7842 63.6773 14.7842C63.3796 14.7842 63.0853 14.7219 62.8132 14.6014C62.541 14.4809 62.2971 14.3047 62.0971 14.0843C61.8971 13.8639 61.7454 13.6041 61.6518 13.3216C61.5581 13.0391 61.5247 12.7401 61.5535 12.4439ZM64.8865 12.4439C64.8865 11.4678 64.448 10.897 63.6785 10.897C62.906 10.897 62.4715 11.4678 62.4715 12.4439C62.4715 13.4278 62.906 13.9942 63.6785 13.9942C64.448 13.9941 64.8865 13.4238 64.8865 12.4439H64.8865Z" fill="white"/>
<path d="M66.7368 13.4239C66.7368 12.6133 67.3403 12.146 68.4116 12.0796L69.6313 12.0093V11.6206C69.6313 11.145 69.3169 10.8765 68.7095 10.8765C68.2134 10.8765 67.8696 11.0586 67.771 11.377H66.9106C67.0015 10.6035 67.729 10.1075 68.7505 10.1075C69.8794 10.1075 70.5161 10.6695 70.5161 11.6206V14.6973H69.6606V14.0645H69.5903C69.4476 14.2915 69.2472 14.4765 69.0096 14.6007C68.772 14.7249 68.5056 14.7839 68.2378 14.7715C68.0488 14.7911 67.8577 14.771 67.6769 14.7123C67.4962 14.6536 67.3297 14.5577 67.1883 14.4307C67.0469 14.3037 66.9337 14.1485 66.8559 13.9751C66.7781 13.8017 66.7376 13.6139 66.7368 13.4239ZM69.6313 13.0391V12.6626L68.5317 12.7329C67.9116 12.7744 67.6304 12.9854 67.6304 13.3823C67.6304 13.7876 67.9819 14.0235 68.4654 14.0235C68.607 14.0378 68.7501 14.0235 68.8861 13.9814C69.0221 13.9393 69.1482 13.8703 69.257 13.7784C69.3658 13.6866 69.455 13.5738 69.5193 13.4468C69.5836 13.3198 69.6217 13.1811 69.6313 13.0391Z" fill="white"/>
<path d="M71.6841 12.4439C71.6841 11.021 72.4155 10.1196 73.5532 10.1196C73.8346 10.1067 74.1139 10.1741 74.3585 10.314C74.603 10.4539 74.8026 10.6605 74.9341 10.9096H75.0005V8.43652H75.8892V14.6973H75.0376V13.9858H74.9673C74.8257 14.2333 74.6191 14.4374 74.3698 14.5758C74.1206 14.7143 73.8382 14.782 73.5532 14.7715C72.4077 14.7715 71.6841 13.8701 71.6841 12.4439ZM72.6021 12.4439C72.6021 13.3989 73.0523 13.9737 73.8052 13.9737C74.5542 13.9737 75.0171 13.3907 75.0171 12.4478C75.0171 11.5093 74.5494 10.918 73.8052 10.918C73.0571 10.918 72.6021 11.4966 72.6021 12.4439H72.6021Z" fill="white"/>
<path d="M79.5657 12.4439C79.5374 12.1479 79.5712 11.8494 79.6651 11.5673C79.7589 11.2852 79.9107 11.0259 80.1106 10.8059C80.3106 10.5859 80.5543 10.4102 80.8261 10.2899C81.098 10.1696 81.392 10.1075 81.6892 10.1075C81.9865 10.1075 82.2805 10.1696 82.5524 10.2899C82.8242 10.4102 83.0679 10.5859 83.2679 10.8059C83.4678 11.0259 83.6196 11.2852 83.7134 11.5673C83.8072 11.8494 83.8411 12.1479 83.8128 12.4439C83.8416 12.7401 83.8082 13.0391 83.7146 13.3216C83.621 13.6041 83.4693 13.8639 83.2693 14.0843C83.0693 14.3048 82.8254 14.4809 82.5533 14.6014C82.2812 14.722 81.9869 14.7842 81.6892 14.7842C81.3916 14.7842 81.0973 14.722 80.8252 14.6014C80.553 14.4809 80.3091 14.3048 80.1092 14.0843C79.9092 13.8639 79.7575 13.6041 79.6639 13.3216C79.5703 13.0391 79.5369 12.7401 79.5657 12.4439ZM82.8987 12.4439C82.8987 11.4678 82.4602 10.897 81.6907 10.897C80.9182 10.897 80.4837 11.4678 80.4837 12.4439C80.4837 13.4278 80.9183 13.9942 81.6907 13.9942C82.4602 13.9942 82.8987 13.4238 82.8987 12.4439Z" fill="white"/>
<path d="M85.0054 10.1939H85.8608V10.9092H85.9273C86.0399 10.6523 86.2299 10.4369 86.4708 10.2931C86.7117 10.1493 86.9914 10.0842 87.271 10.107C87.4901 10.0905 87.7101 10.1235 87.9147 10.2036C88.1193 10.2837 88.3033 10.4088 88.4529 10.5697C88.6026 10.7305 88.7142 10.923 88.7794 11.1328C88.8446 11.3426 88.8617 11.5644 88.8296 11.7818V14.6968H87.9409V12.0049C87.9409 11.2813 87.6265 10.9214 86.9692 10.9214C86.8205 10.9145 86.672 10.9398 86.5339 10.9957C86.3959 11.0515 86.2715 11.1365 86.1694 11.2449C86.0673 11.3533 85.9898 11.4825 85.9423 11.6236C85.8947 11.7647 85.8783 11.9145 85.894 12.0625V14.6968H85.0054V10.1939Z" fill="white"/>
<path d="M93.8511 9.07324V10.2148H94.8267V10.9634H93.8511V13.2788C93.8511 13.7505 94.0454 13.957 94.4878 13.957C94.601 13.9567 94.7142 13.9498 94.8267 13.9365V14.6768C94.6671 14.7053 94.5054 14.7205 94.3433 14.7222C93.355 14.7222 92.9614 14.3745 92.9614 13.5063V10.9633H92.2466V10.2148H92.9614V9.07324H93.8511Z" fill="white"/>
<path d="M96.0405 8.43652H96.9214V10.918H96.9917C97.1098 10.6587 97.305 10.4421 97.5507 10.2977C97.7964 10.1534 98.0807 10.0883 98.3647 10.1113C98.5827 10.0995 98.8005 10.1359 99.0028 10.2179C99.2051 10.2999 99.3868 10.4256 99.5349 10.586C99.683 10.7463 99.7939 10.9373 99.8597 11.1455C99.9255 11.3536 99.9445 11.5737 99.9155 11.79V14.6973H99.0259V12.0093C99.0259 11.29 98.6909 10.9258 98.063 10.9258C97.9103 10.9132 97.7567 10.9342 97.6129 10.9873C97.4691 11.0404 97.3387 11.1242 97.2307 11.2329C97.1227 11.3417 97.0397 11.4727 96.9877 11.6168C96.9356 11.761 96.9157 11.9147 96.9292 12.0674V14.6973H96.0406L96.0405 8.43652Z" fill="white"/>
<path d="M105.097 13.4815C104.977 13.893 104.715 14.249 104.358 14.4871C104.002 14.7253 103.573 14.8304 103.146 14.7842C102.849 14.792 102.555 14.7352 102.282 14.6177C102.01 14.5001 101.766 14.3247 101.568 14.1036C101.37 13.8824 101.223 13.6209 101.136 13.3371C101.049 13.0532 101.026 12.754 101.066 12.46C101.027 12.1651 101.051 11.8652 101.137 11.5805C101.224 11.2958 101.371 11.033 101.567 10.81C101.764 10.5869 102.007 10.4087 102.278 10.2875C102.55 10.1663 102.845 10.1049 103.142 10.1074C104.395 10.1074 105.151 10.9634 105.151 12.3774V12.6875H101.971V12.7373C101.957 12.9026 101.978 13.0689 102.032 13.2257C102.086 13.3824 102.173 13.5261 102.286 13.6476C102.399 13.769 102.536 13.8655 102.688 13.9309C102.84 13.9963 103.005 14.0292 103.171 14.0273C103.383 14.0528 103.598 14.0146 103.789 13.9174C103.98 13.8202 104.138 13.6684 104.242 13.4814L105.097 13.4815ZM101.971 12.0303H104.246C104.257 11.8792 104.236 11.7274 104.185 11.5846C104.134 11.4419 104.054 11.3114 103.95 11.2016C103.845 11.0917 103.719 11.0049 103.579 10.9467C103.439 10.8886 103.289 10.8603 103.137 10.8638C102.984 10.8619 102.831 10.8907 102.689 10.9487C102.546 11.0066 102.417 11.0925 102.308 11.2012C102.2 11.3099 102.114 11.4393 102.056 11.5817C101.998 11.724 101.969 11.8766 101.971 12.0303H101.971Z" fill="white"/>
<path d="M266 0H141C138.239 0 136 2.23858 136 5V35C136 37.7614 138.239 40 141 40H266C268.761 40 271 37.7614 271 35V5C271 2.23858 268.761 0 266 0Z" fill="black"/>
<path d="M266 0.8C267.114 0.8 268.182 1.2425 268.97 2.03015C269.758 2.8178 270.2 3.88609 270.2 5V35C270.2 36.1139 269.758 37.1822 268.97 37.9698C268.182 38.7575 267.114 39.2 266 39.2H141C139.886 39.2 138.818 38.7575 138.03 37.9698C137.242 37.1822 136.8 36.1139 136.8 35V5C136.8 3.88609 137.242 2.8178 138.03 2.03015C138.818 1.2425 139.886 0.8 141 0.8H266ZM266 0H141C139.674 0 138.402 0.526784 137.464 1.46447C136.527 2.40215 136 3.67392 136 5V35C136 36.3261 136.527 37.5979 137.464 38.5355C138.402 39.4732 139.674 40 141 40H266C267.326 40 268.598 39.4732 269.536 38.5355C270.473 37.5979 271 36.3261 271 35V5C271 3.67392 270.473 2.40215 269.536 1.46447C268.598 0.526784 267.326 0 266 0Z" fill="#A6A6A6"/>
<path d="M180.376 10.4858H182.467V13.3869C182.153 13.4933 181.83 13.5724 181.497 13.6242C181.167 13.676 180.797 13.702 180.388 13.702C179.766 13.702 179.241 13.5778 178.813 13.3296C178.387 13.0814 178.064 12.7281 177.843 12.2698C177.622 11.8088 177.511 11.2619 177.511 10.629C177.511 10.0098 177.633 9.46967 177.876 9.00866C178.121 8.54765 178.474 8.1903 178.935 7.93661C179.399 7.68019 179.956 7.55198 180.605 7.55198C180.938 7.55198 181.253 7.58335 181.55 7.64609C181.85 7.70611 182.128 7.79203 182.385 7.90388L182.119 8.50946C181.898 8.41399 181.654 8.33215 181.386 8.26396C181.122 8.19576 180.848 8.16166 180.564 8.16166C180.076 8.16166 179.657 8.26259 179.308 8.46445C178.961 8.66632 178.695 8.95138 178.51 9.31964C178.327 9.6879 178.236 10.1244 178.236 10.629C178.236 11.1282 178.316 11.5633 178.477 11.9343C178.638 12.3026 178.889 12.589 179.23 12.7936C179.571 12.9982 180.01 13.1005 180.548 13.1005C180.818 13.1005 181.05 13.0855 181.243 13.0554C181.437 13.0227 181.613 12.9845 181.771 12.9409V11.1078H180.376V10.4858ZM187.246 13.6201H183.915V7.63791H187.246V8.25168H184.611V10.1871H187.094V10.7927H184.611V13.0063H187.246V13.6201ZM190.409 13.6201H189.709V8.25168H187.827V7.63791H192.283V8.25168H190.409V13.6201ZM195.364 13.6201V7.63791H196.06V13.6201H195.364ZM199.542 13.6201H198.842V8.25168H196.96V7.63791H201.416V8.25168H199.542V13.6201ZM209.685 10.6208C209.685 11.0818 209.627 11.5019 209.509 11.8811C209.392 12.2575 209.217 12.5822 208.986 12.855C208.756 13.125 208.471 13.3337 208.13 13.481C207.789 13.6283 207.394 13.702 206.944 13.702C206.48 13.702 206.075 13.6283 205.729 13.481C205.385 13.3337 205.098 13.1236 204.869 12.8509C204.643 12.5781 204.472 12.2521 204.358 11.8729C204.246 11.4937 204.19 11.0737 204.19 10.6126C204.19 10.0016 204.291 9.46558 204.493 9.00457C204.695 8.54356 205 8.18485 205.409 7.92843C205.821 7.67201 206.337 7.5438 206.956 7.5438C207.548 7.5438 208.046 7.67064 208.45 7.92434C208.856 8.17803 209.163 8.53538 209.37 8.99639C209.58 9.45467 209.685 9.99615 209.685 10.6208ZM204.922 10.6208C204.922 11.1282 204.995 11.5674 205.139 11.9384C205.284 12.3094 205.505 12.5958 205.802 12.7977C206.102 12.9995 206.483 13.1005 206.944 13.1005C207.408 13.1005 207.787 12.9995 208.081 12.7977C208.379 12.5958 208.598 12.3094 208.74 11.9384C208.882 11.5674 208.953 11.1282 208.953 10.6208C208.953 9.84884 208.791 9.24599 208.466 8.81226C208.144 8.3758 207.641 8.15757 206.956 8.15757C206.492 8.15757 206.11 8.25714 205.81 8.45627C205.51 8.6554 205.287 8.9391 205.139 9.30736C204.995 9.6729 204.922 10.1107 204.922 10.6208ZM215.696 13.6201H214.894L211.633 8.59539H211.6C211.608 8.72906 211.618 8.88182 211.629 9.05367C211.64 9.2228 211.648 9.4042 211.653 9.59788C211.662 9.78883 211.666 9.98387 211.666 10.183V13.6201H211.019V7.63791H211.817L215.066 12.6463H215.095C215.089 12.5508 215.082 12.4158 215.074 12.2412C215.066 12.0639 215.058 11.8743 215.05 11.6724C215.044 11.4678 215.041 11.2782 215.041 11.1037V7.63791H215.696V13.6201Z" fill="white"/>
<path d="M180.376 10.4858V10.3858H180.276V10.4858H180.376ZM182.467 10.4858H182.567V10.3858H182.467V10.4858ZM182.467 13.3869L182.499 13.4816L182.567 13.4586V13.3869H182.467ZM181.497 13.6242L181.481 13.5254L181.481 13.5254L181.497 13.6242ZM178.813 13.3296L178.762 13.416L178.763 13.4161L178.813 13.3296ZM177.843 12.2698L177.753 12.313L177.753 12.3133L177.843 12.2698ZM177.876 9.00866L177.787 8.96166L177.787 8.96207L177.876 9.00866ZM178.935 7.93661L178.984 8.02422L178.984 8.02412L178.935 7.93661ZM181.55 7.64609L181.529 7.74394L181.53 7.74415L181.55 7.64609ZM182.385 7.90388L182.476 7.94409L182.517 7.8523L182.425 7.81222L182.385 7.90388ZM182.119 8.50946L182.079 8.60126L182.17 8.64069L182.21 8.54967L182.119 8.50946ZM181.386 8.26396L181.361 8.36079L181.362 8.36085L181.386 8.26396ZM179.308 8.46445L179.258 8.37788L179.257 8.37805L179.308 8.46445ZM178.51 9.31964L178.421 9.27465L178.42 9.27518L178.51 9.31964ZM178.477 11.9343L178.385 11.9741L178.386 11.9743L178.477 11.9343ZM179.23 12.7936L179.179 12.8793L179.23 12.7936ZM181.243 13.0554L181.259 13.1543L181.26 13.1541L181.243 13.0554ZM181.771 12.9409L181.798 13.0373L181.871 13.017V12.9409H181.771ZM181.771 11.1078H181.871V11.0078H181.771V11.1078ZM180.376 11.1078H180.276V11.2078H180.376V11.1078ZM180.376 10.5858H182.467V10.3858H180.376V10.5858ZM182.367 10.4858V13.3869H182.567V10.4858H182.367ZM182.435 13.2922C182.126 13.3967 181.809 13.4744 181.481 13.5254L181.512 13.723C181.851 13.6703 182.18 13.5899 182.499 13.4816L182.435 13.2922ZM181.481 13.5254C181.157 13.5763 180.793 13.602 180.388 13.602V13.802C180.801 13.802 181.176 13.7758 181.512 13.723L181.481 13.5254ZM180.388 13.602C179.779 13.602 179.272 13.4805 178.863 13.2431L178.763 13.4161C179.209 13.6752 179.753 13.802 180.388 13.802V13.602ZM178.863 13.2432C178.455 13.0054 178.146 12.6673 177.933 12.2264L177.753 12.3133C177.982 12.7889 178.319 13.1574 178.762 13.416L178.863 13.2432ZM177.933 12.2266C177.72 11.7819 177.611 11.2504 177.611 10.629H177.411C177.411 11.2734 177.524 11.8357 177.753 12.313L177.933 12.2266ZM177.611 10.629C177.611 10.023 177.73 9.49943 177.964 9.05526L177.787 8.96207C177.536 9.43992 177.411 9.9966 177.411 10.629H177.611ZM177.964 9.05567C178.2 8.61193 178.539 8.26863 178.984 8.02422L178.887 7.849C178.409 8.11198 178.042 8.48338 177.787 8.96166L177.964 9.05567ZM178.984 8.02412C179.43 7.77755 179.969 7.65198 180.605 7.65198V7.45198C179.942 7.45198 179.369 7.58284 178.887 7.8491L178.984 8.02412ZM180.605 7.65198C180.931 7.65198 181.239 7.68276 181.529 7.74394L181.571 7.54825C181.266 7.48395 180.944 7.45198 180.605 7.45198V7.65198ZM181.53 7.74415C181.824 7.80289 182.096 7.8868 182.345 7.99554L182.425 7.81222C182.161 7.69727 181.876 7.60932 181.57 7.54804L181.53 7.74415ZM182.293 7.86367L182.027 8.46925L182.21 8.54967L182.476 7.94409L182.293 7.86367ZM182.159 8.41767C181.932 8.31982 181.683 8.23637 181.411 8.16706L181.362 8.36085C181.625 8.42793 181.864 8.50815 182.079 8.60126L182.159 8.41767ZM181.411 8.16712C181.138 8.09674 180.856 8.06166 180.564 8.06166V8.26166C180.84 8.26166 181.105 8.29477 181.361 8.36079L181.411 8.16712ZM180.564 8.06166C180.062 8.06166 179.625 8.16554 179.258 8.37788L179.358 8.55103C179.689 8.35964 180.09 8.26166 180.564 8.26166V8.06166ZM179.257 8.37805C178.894 8.58995 178.615 8.88962 178.421 9.27465L178.599 9.36462C178.776 9.01313 179.029 8.74269 179.358 8.55086L179.257 8.37805ZM178.42 9.27518C178.229 9.66005 178.136 10.1124 178.136 10.629H178.336C178.336 10.1363 178.425 9.71575 178.599 9.36409L178.42 9.27518ZM178.136 10.629C178.136 11.1388 178.218 11.588 178.385 11.9741L178.569 11.8945C178.415 11.5386 178.336 11.1176 178.336 10.629H178.136ZM178.386 11.9743C178.555 12.3614 178.82 12.6639 179.179 12.8793L179.281 12.7078C178.959 12.514 178.721 12.2437 178.569 11.8943L178.386 11.9743ZM179.179 12.8793C179.54 13.096 179.998 13.2005 180.548 13.2005V13.0005C180.022 13.0005 179.602 12.9004 179.281 12.7078L179.179 12.8793ZM180.548 13.2005C180.821 13.2005 181.058 13.1853 181.259 13.1543L181.228 12.9566C181.041 12.9856 180.814 13.0005 180.548 13.0005V13.2005ZM181.26 13.1541C181.456 13.1209 181.636 13.082 181.798 13.0373L181.744 12.8445C181.59 12.8871 181.417 12.9246 181.227 12.9568L181.26 13.1541ZM181.871 12.9409V11.1078H181.671V12.9409H181.871ZM181.771 11.0078H180.376V11.2078H181.771V11.0078ZM180.476 11.1078V10.4858H180.276V11.1078H180.476ZM187.246 13.6201V13.7201H187.346V13.6201H187.246ZM183.915 13.6201H183.815V13.7201H183.915V13.6201ZM183.915 7.63791V7.53791H183.815V7.63791H183.915ZM187.246 7.63791H187.346V7.53791H187.246V7.63791ZM187.246 8.25168V8.35168H187.346V8.25168H187.246ZM184.611 8.25168V8.15168H184.511V8.25168H184.611ZM184.611 10.1871H184.511V10.2871H184.611V10.1871ZM187.094 10.1871H187.194V10.0871H187.094V10.1871ZM187.094 10.7927V10.8927H187.194V10.7927H187.094ZM184.611 10.7927V10.6927H184.511V10.7927H184.611ZM184.611 13.0063H184.511V13.1063H184.611V13.0063ZM187.246 13.0063H187.346V12.9063H187.246V13.0063ZM187.246 13.5201H183.915V13.7201H187.246V13.5201ZM184.015 13.6201V7.63791H183.815V13.6201H184.015ZM183.915 7.73791H187.246V7.53791H183.915V7.73791ZM187.146 7.63791V8.25168H187.346V7.63791H187.146ZM187.246 8.15168H184.611V8.35168H187.246V8.15168ZM184.511 8.25168V10.1871H184.711V8.25168H184.511ZM184.611 10.2871H187.094V10.0871H184.611V10.2871ZM186.994 10.1871V10.7927H187.194V10.1871H186.994ZM187.094 10.6927H184.611V10.8927H187.094V10.6927ZM184.511 10.7927V13.0063H184.711V10.7927H184.511ZM184.611 13.1063H187.246V12.9063H184.611V13.1063ZM187.146 13.0063V13.6201H187.346V13.0063H187.146ZM190.409 13.6201V13.7201H190.509V13.6201H190.409ZM189.709 13.6201H189.609V13.7201H189.709V13.6201ZM189.709 8.25168H189.809V8.15168H189.709V8.25168ZM187.827 8.25168H187.727V8.35168H187.827V8.25168ZM187.827 7.63791V7.53791H187.727V7.63791H187.827ZM192.283 7.63791H192.383V7.53791H192.283V7.63791ZM192.283 8.25168V8.35168H192.383V8.25168H192.283ZM190.409 8.25168V8.15168H190.309V8.25168H190.409ZM190.409 13.5201H189.709V13.7201H190.409V13.5201ZM189.809 13.6201V8.25168H189.609V13.6201H189.809ZM189.709 8.15168H187.827V8.35168H189.709V8.15168ZM187.927 8.25168V7.63791H187.727V8.25168H187.927ZM187.827 7.73791H192.283V7.53791H187.827V7.73791ZM192.183 7.63791V8.25168H192.383V7.63791H192.183ZM192.283 8.15168H190.409V8.35168H192.283V8.15168ZM190.309 8.25168V13.6201H190.509V8.25168H190.309ZM195.364 13.6201H195.264V13.7201H195.364V13.6201ZM195.364 7.63791V7.53791H195.264V7.63791H195.364ZM196.06 7.63791H196.16V7.53791H196.06V7.63791ZM196.06 13.6201V13.7201H196.16V13.6201H196.06ZM195.464 13.6201V7.63791H195.264V13.6201H195.464ZM195.364 7.73791H196.06V7.53791H195.364V7.73791ZM195.96 7.63791V13.6201H196.16V7.63791H195.96ZM196.06 13.5201H195.364V13.7201H196.06V13.5201ZM199.542 13.6201V13.7201H199.642V13.6201H199.542ZM198.842 13.6201H198.742V13.7201H198.842V13.6201ZM198.842 8.25168H198.942V8.15168H198.842V8.25168ZM196.96 8.25168H196.86V8.35168H196.96V8.25168ZM196.96 7.63791V7.53791H196.86V7.63791H196.96ZM201.416 7.63791H201.516V7.53791H201.416V7.63791ZM201.416 8.25168V8.35168H201.516V8.25168H201.416ZM199.542 8.25168V8.15168H199.442V8.25168H199.542ZM199.542 13.5201H198.842V13.7201H199.542V13.5201ZM198.942 13.6201V8.25168H198.742V13.6201H198.942ZM198.842 8.15168H196.96V8.35168H198.842V8.15168ZM197.06 8.25168V7.63791H196.86V8.25168H197.06ZM196.96 7.73791H201.416V7.53791H196.96V7.73791ZM201.316 7.63791V8.25168H201.516V7.63791H201.316ZM201.416 8.15168H199.542V8.35168H201.416V8.15168ZM199.442 8.25168V13.6201H199.642V8.25168H199.442ZM209.509 11.8811L209.605 11.9109L209.605 11.9107L209.509 11.8811ZM208.986 12.855L208.909 12.7902L208.909 12.7903L208.986 12.855ZM208.13 13.481L208.17 13.5728L208.13 13.481ZM205.729 13.481L205.689 13.5729L205.689 13.573L205.729 13.481ZM204.869 12.8509L204.792 12.9147L204.793 12.9152L204.869 12.8509ZM204.358 11.8729L204.262 11.9012L204.262 11.9018L204.358 11.8729ZM205.409 7.92843L205.356 7.84353L205.356 7.84369L205.409 7.92843ZM208.45 7.92434L208.396 8.00901L208.397 8.00917L208.45 7.92434ZM209.37 8.99639L209.279 9.0374L209.279 9.03805L209.37 8.99639ZM205.802 12.7977L205.746 12.8804L205.746 12.8806L205.802 12.7977ZM208.081 12.7977L208.025 12.7149L208.025 12.7152L208.081 12.7977ZM208.466 8.81226L208.385 8.87161L208.386 8.87218L208.466 8.81226ZM205.81 8.45627L205.755 8.37295L205.81 8.45627ZM205.139 9.30736L205.046 9.27022L205.046 9.27058L205.139 9.30736ZM209.585 10.6208C209.585 11.0734 209.528 11.4833 209.414 11.8516L209.605 11.9107C209.726 11.5205 209.785 11.0903 209.785 10.6208H209.585ZM209.414 11.8514C209.3 12.2163 209.132 12.5287 208.909 12.7902L209.062 12.9197C209.303 12.6357 209.484 12.2988 209.605 11.9109L209.414 11.8514ZM208.909 12.7903C208.691 13.048 208.418 13.2477 208.091 13.3892L208.17 13.5728C208.524 13.4197 208.822 13.202 209.062 12.9196L208.909 12.7903ZM208.091 13.3892C207.765 13.5301 207.383 13.602 206.944 13.602V13.802C207.405 13.802 207.814 13.7265 208.17 13.5728L208.091 13.3892ZM206.944 13.602C206.49 13.602 206.099 13.5299 205.768 13.389L205.689 13.573C206.051 13.7267 206.47 13.802 206.944 13.802V13.602ZM205.768 13.3891C205.438 13.2476 205.164 13.0467 204.946 12.7865L204.793 12.9152C205.032 13.2005 205.332 13.4198 205.689 13.5729L205.768 13.3891ZM204.946 12.787C204.729 12.5256 204.565 12.2119 204.453 11.844L204.262 11.9018C204.38 12.2923 204.556 12.6305 204.792 12.9147L204.946 12.787ZM204.454 11.8446C204.345 11.476 204.29 11.0656 204.29 10.6126H204.09C204.09 11.0817 204.147 11.5115 204.262 11.9012L204.454 11.8446ZM204.29 10.6126C204.29 10.0125 204.389 9.49064 204.584 9.04468L204.401 8.96446C204.193 9.44052 204.09 9.99069 204.09 10.6126H204.29ZM204.584 9.04468C204.779 8.60125 205.071 8.25845 205.462 8.01316L205.356 7.84369C204.929 8.11125 204.611 8.48587 204.401 8.96446L204.584 9.04468ZM205.462 8.01332C205.854 7.76916 206.35 7.6438 206.956 7.6438V7.4438C206.323 7.4438 205.788 7.57485 205.356 7.84353L205.462 8.01332ZM206.956 7.6438C207.534 7.6438 208.012 7.7675 208.396 8.00901L208.503 7.83966C208.08 7.57379 207.562 7.4438 206.956 7.4438V7.6438ZM208.397 8.00917C208.785 8.25177 209.079 8.59342 209.279 9.0374L209.461 8.95537C209.246 8.47734 208.927 8.10428 208.503 7.8395L208.397 8.00917ZM209.279 9.03805C209.482 9.48052 209.585 10.0072 209.585 10.6208H209.785C209.785 9.98512 209.678 9.42881 209.461 8.95472L209.279 9.03805ZM204.822 10.6208C204.822 11.1374 204.896 11.5894 205.046 11.9747L205.232 11.9021C205.093 11.5454 205.022 11.1191 205.022 10.6208H204.822ZM205.046 11.9747C205.197 12.3624 205.43 12.666 205.746 12.8804L205.858 12.7149C205.58 12.5257 205.371 12.2563 205.232 11.9021L205.046 11.9747ZM205.746 12.8806C206.067 13.0963 206.468 13.2005 206.944 13.2005V13.0005C206.497 13.0005 206.138 12.9028 205.858 12.7147L205.746 12.8806ZM206.944 13.2005C207.422 13.2005 207.822 13.0964 208.138 12.8802L208.025 12.7152C207.751 12.9027 207.393 13.0005 206.944 13.0005V13.2005ZM208.137 12.8804C208.453 12.6658 208.685 12.3621 208.833 11.9741L208.647 11.9027C208.511 12.2567 208.304 12.5258 208.025 12.7149L208.137 12.8804ZM208.833 11.9741C208.981 11.589 209.053 11.1372 209.053 10.6208H208.853C208.853 11.1192 208.783 11.5458 208.647 11.9027L208.833 11.9741ZM209.053 10.6208C209.053 9.83614 208.888 9.20934 208.546 8.75234L208.386 8.87218C208.693 9.28263 208.853 9.86155 208.853 10.6208H209.053ZM208.546 8.7529C208.201 8.28426 207.663 8.05757 206.956 8.05757V8.25757C207.618 8.25757 208.087 8.46734 208.385 8.87161L208.546 8.7529ZM206.956 8.05757C206.478 8.05757 206.076 8.1602 205.755 8.37295L205.866 8.53959C206.145 8.35407 206.506 8.25757 206.956 8.25757V8.05757ZM205.755 8.37295C205.436 8.58444 205.2 8.88511 205.046 9.27022L205.232 9.3445C205.373 8.99309 205.584 8.72637 205.866 8.53959L205.755 8.37295ZM205.046 9.27058C204.896 9.65074 204.822 10.1017 204.822 10.6208H205.022C205.022 10.1197 205.093 9.69505 205.232 9.34414L205.046 9.27058ZM215.696 13.6201V13.7201H215.796V13.6201H215.696ZM214.894 13.6201L214.81 13.6746L214.84 13.7201H214.894V13.6201ZM211.633 8.59539L211.717 8.54095L211.687 8.49539H211.633V8.59539ZM211.6 8.59539V8.49539H211.494L211.5 8.6015L211.6 8.59539ZM211.629 9.05367L211.529 9.06001L211.529 9.06011L211.629 9.05367ZM211.653 9.59788L211.553 9.6007L211.554 9.60216L211.653 9.59788ZM211.666 13.6201V13.7201H211.766V13.6201H211.666ZM211.019 13.6201H210.919V13.7201H211.019V13.6201ZM211.019 7.63791V7.53791H210.919V7.63791H211.019ZM211.817 7.63791L211.901 7.58349L211.871 7.53791H211.817V7.63791ZM215.066 12.6463L214.982 12.7007L215.012 12.7463H215.066V12.6463ZM215.095 12.6463V12.7463H215.201L215.194 12.6406L215.095 12.6463ZM215.074 12.2412L214.974 12.2458L214.974 12.2459L215.074 12.2412ZM215.05 11.6724L214.95 11.6751L214.95 11.6765L215.05 11.6724ZM215.041 7.63791V7.53791H214.941V7.63791H215.041ZM215.696 7.63791H215.796V7.53791H215.696V7.63791ZM215.696 13.5201H214.894V13.7201H215.696V13.5201ZM214.978 13.5657L211.717 8.54095L211.549 8.64983L214.81 13.6746L214.978 13.5657ZM211.633 8.49539H211.6V8.69539H211.633V8.49539ZM211.5 8.6015C211.509 8.73526 211.518 8.8881 211.529 9.06001L211.729 9.04734C211.718 8.87554 211.708 8.72285 211.7 8.58928L211.5 8.6015ZM211.529 9.06011C211.54 9.22788 211.548 9.40806 211.553 9.6007L211.753 9.59507C211.748 9.40035 211.74 9.21772 211.729 9.04723L211.529 9.06011ZM211.554 9.60216C211.562 9.79163 211.566 9.98524 211.566 10.183H211.766C211.766 9.98251 211.762 9.78603 211.753 9.5936L211.554 9.60216ZM211.566 10.183V13.6201H211.766V10.183H211.566ZM211.666 13.5201H211.019V13.7201H211.666V13.5201ZM211.119 13.6201V7.63791H210.919V13.6201H211.119ZM211.019 7.73791H211.817V7.53791H211.019V7.73791ZM211.733 7.69233L214.982 12.7007L215.15 12.5918L211.901 7.58349L211.733 7.69233ZM215.066 12.7463H215.095V12.5463H215.066V12.7463ZM215.194 12.6406C215.189 12.5456 215.182 12.411 215.174 12.2365L214.974 12.2459C214.982 12.4206 214.989 12.556 214.995 12.652L215.194 12.6406ZM215.174 12.2366C215.166 12.0595 215.158 11.8701 215.15 11.6684L214.95 11.6765C214.958 11.8785 214.966 12.0683 214.974 12.2458L215.174 12.2366ZM215.15 11.6698C215.144 11.4659 215.141 11.2772 215.141 11.1037H214.941C214.941 11.2793 214.944 11.4698 214.95 11.6751L215.15 11.6698ZM215.141 11.1037V7.63791H214.941V11.1037H215.141ZM215.041 7.73791H215.696V7.53791H215.041V7.73791ZM215.596 7.63791V13.6201H215.796V7.63791H215.596Z" fill="white"/>
<path d="M204.14 21.7499C203.298 21.7519 202.475 22.0037 201.775 22.4734C201.076 22.9432 200.531 23.6098 200.211 24.3889C199.89 25.1681 199.808 26.0248 199.974 26.8508C200.14 27.6768 200.548 28.4349 201.145 29.0293C201.742 29.6236 202.502 30.0276 203.329 30.19C204.156 30.3524 205.012 30.2661 205.79 29.9418C206.567 29.6175 207.231 29.07 207.698 28.3683C208.164 27.6667 208.412 26.8425 208.41 25.9999C208.418 25.4379 208.313 24.8799 208.101 24.3593C207.889 23.8386 207.575 23.366 207.176 22.9694C206.778 22.5729 206.304 22.2606 205.782 22.051C205.261 21.8415 204.702 21.7391 204.14 21.7499ZM204.14 28.5799C203.624 28.616 203.108 28.496 202.661 28.2353C202.214 27.9747 201.855 27.5855 201.632 27.1184C201.409 26.6512 201.331 26.1278 201.41 25.6161C201.488 25.1043 201.718 24.628 202.071 24.249C202.424 23.8699 202.882 23.6057 203.387 23.4907C203.892 23.3757 204.419 23.4152 204.901 23.604C205.383 23.7929 205.797 24.1223 206.09 24.5496C206.382 24.9769 206.539 25.4822 206.54 25.9999C206.556 26.3279 206.506 26.6559 206.394 26.9643C206.281 27.2728 206.108 27.5556 205.884 27.7961C205.661 28.0366 205.391 28.2298 205.091 28.3644C204.792 28.499 204.468 28.5723 204.14 28.5799ZM194.82 21.7499C193.978 21.7519 193.155 22.0037 192.455 22.4734C191.756 22.9432 191.211 23.6098 190.891 24.3889C190.57 25.1681 190.488 26.0248 190.654 26.8508C190.82 27.6768 191.228 28.4349 191.825 29.0293C192.422 29.6236 193.182 30.0276 194.009 30.19C194.836 30.3524 195.692 30.2661 196.47 29.9418C197.247 29.6175 197.911 29.07 198.378 28.3683C198.844 27.6667 199.092 26.8425 199.09 25.9999C199.098 25.4379 198.993 24.8799 198.781 24.3593C198.569 23.8386 198.255 23.366 197.856 22.9694C197.458 22.5729 196.984 22.2606 196.462 22.051C195.941 21.8415 195.382 21.7391 194.82 21.7499ZM194.82 28.5799C194.304 28.616 193.788 28.496 193.341 28.2353C192.894 27.9747 192.535 27.5855 192.312 27.1184C192.089 26.6512 192.011 26.1278 192.09 25.6161C192.168 25.1043 192.398 24.628 192.751 24.249C193.104 23.8699 193.562 23.6057 194.067 23.4907C194.572 23.3757 195.099 23.4152 195.581 23.604C196.063 23.7929 196.477 24.1223 196.77 24.5496C197.062 24.9769 197.219 25.4822 197.22 25.9999C197.236 26.3279 197.186 26.6559 197.074 26.9643C196.961 27.2728 196.788 27.5556 196.564 27.7961C196.341 28.0366 196.071 28.2298 195.771 28.3644C195.472 28.499 195.148 28.5723 194.82 28.5799ZM183.74 23.0599V24.8599H188.06C187.992 25.7077 187.64 26.5077 187.06 27.1299C186.627 27.5714 186.106 27.9171 185.53 28.1444C184.955 28.3718 184.338 28.4759 183.72 28.4499C182.447 28.4499 181.226 27.9442 180.326 27.044C179.426 26.1439 178.92 24.923 178.92 23.6499C178.92 22.3769 179.426 21.156 180.326 20.2558C181.226 19.3556 182.447 18.8499 183.72 18.8499C184.941 18.8318 186.119 19.2952 187 20.1399L188.27 18.8699C187.674 18.2804 186.966 17.8158 186.189 17.5033C185.411 17.1908 184.578 17.0366 183.74 17.0499C182.851 17.0153 181.964 17.1605 181.133 17.4769C180.301 17.7932 179.542 18.2742 178.901 18.8909C178.26 19.5077 177.75 20.2475 177.401 21.0661C177.053 21.8847 176.873 22.7652 176.873 23.6549C176.873 24.5446 177.053 25.4251 177.401 26.2437C177.75 27.0623 178.26 27.8022 178.901 28.4189C179.542 29.0357 180.301 29.5166 181.133 29.833C181.964 30.1493 182.851 30.2945 183.74 30.2599C184.596 30.2941 185.448 30.1469 186.243 29.8281C187.038 29.5092 187.756 29.0259 188.35 28.4099C189.4 27.2563 189.96 25.7391 189.91 24.1799C189.914 23.8046 189.884 23.4298 189.82 23.0599H183.74ZM229.05 24.4599C228.789 23.6927 228.302 23.0227 227.652 22.5388C227.002 22.0548 226.22 21.7797 225.41 21.7499C224.863 21.7489 224.322 21.86 223.819 22.0765C223.317 22.2929 222.864 22.6101 222.489 23.0085C222.115 23.4068 221.825 23.8778 221.64 24.3923C221.454 24.9068 221.376 25.454 221.41 25.9999C221.402 26.9128 221.689 27.8039 222.228 28.5402C222.768 29.2765 223.531 29.8184 224.404 30.0851C225.277 30.3517 226.213 30.3288 227.072 30.0196C227.931 29.7105 228.667 29.1318 229.17 28.3699L227.72 27.3699C227.504 27.7302 227.197 28.0277 226.831 28.2329C226.464 28.4382 226.05 28.544 225.63 28.5399C225.197 28.5578 224.768 28.4442 224.4 28.214C224.033 27.9837 223.743 27.6477 223.57 27.2499L229.26 24.8999L229.05 24.4599ZM223.25 25.8799C223.23 25.5693 223.272 25.2578 223.373 24.9635C223.475 24.6693 223.634 24.3983 223.842 24.1664C224.05 23.9346 224.302 23.7464 224.583 23.6131C224.864 23.4798 225.169 23.4039 225.48 23.3899C225.802 23.3703 226.123 23.4461 226.402 23.608C226.682 23.7699 226.907 24.0106 227.05 24.2999L223.25 25.8799ZM218.63 29.9999H220.5V17.4999H218.63V29.9999ZM215.57 22.6999H215.5C215.221 22.3818 214.876 22.1277 214.489 21.9551C214.103 21.7825 213.683 21.6955 213.26 21.6999C212.167 21.7529 211.137 22.2243 210.382 23.0165C209.627 23.8087 209.206 24.8608 209.206 25.9549C209.206 27.049 209.627 28.1012 210.382 28.8933C211.137 29.6855 212.167 30.1569 213.26 30.2099C213.684 30.2184 214.105 30.1332 214.492 29.9603C214.879 29.7875 215.223 29.5312 215.5 29.2099H215.57V29.8199C215.57 31.4499 214.7 32.3199 213.3 32.3199C212.832 32.3096 212.378 32.1606 211.996 31.8918C211.613 31.6229 211.318 31.2464 211.15 30.8099L209.53 31.4799C209.83 32.2322 210.35 32.8758 211.023 33.3258C211.697 33.7757 212.49 34.0108 213.3 33.9999C215.49 33.9999 217.3 32.7099 217.3 29.5699V21.9999H215.57V22.6999ZM213.42 28.5799C212.765 28.5391 212.15 28.25 211.7 27.7716C211.251 27.2932 211.001 26.6614 211.001 26.0049C211.001 25.3485 211.251 24.7167 211.7 24.2383C212.15 23.7598 212.765 23.4708 213.42 23.4299C213.74 23.4437 214.055 23.5218 214.344 23.6596C214.633 23.7973 214.892 23.9918 215.105 24.2316C215.318 24.4714 215.48 24.7515 215.582 25.0553C215.684 25.3591 215.725 25.6803 215.7 25.9999C215.727 26.3206 215.689 26.6435 215.588 26.9491C215.487 27.2546 215.325 27.5365 215.112 27.7777C214.899 28.0189 214.639 28.2143 214.348 28.3522C214.057 28.4901 213.742 28.5676 213.42 28.5799ZM237.81 17.4999H233.33V29.9999H235.2V25.2599H237.81C238.343 25.2982 238.878 25.2263 239.382 25.0487C239.886 24.871 240.348 24.5915 240.739 24.2274C241.13 23.8634 241.442 23.4227 241.655 22.9328C241.869 22.4428 241.979 21.9142 241.979 21.3799C241.979 20.8456 241.869 20.317 241.655 19.8271C241.442 19.3372 241.13 18.8965 240.739 18.5324C240.348 18.1684 239.886 17.8888 239.382 17.7112C238.878 17.5336 238.343 17.4616 237.81 17.4999ZM237.81 23.4999H235.2V19.2399H237.85C238.131 19.2399 238.409 19.2953 238.669 19.4028C238.929 19.5104 239.165 19.668 239.363 19.8667C239.562 20.0654 239.72 20.3013 239.827 20.561C239.935 20.8206 239.99 21.0989 239.99 21.3799C239.99 21.661 239.935 21.9392 239.827 22.1989C239.72 22.4585 239.562 22.6944 239.363 22.8931C239.165 23.0918 238.929 23.2495 238.669 23.357C238.409 23.4646 238.131 23.5199 237.85 23.5199L237.81 23.4999ZM249.35 21.7099C248.669 21.6679 247.991 21.8265 247.399 22.1659C246.807 22.5054 246.328 23.0109 246.02 23.6199L247.67 24.3099C247.837 24.0093 248.087 23.7634 248.39 23.602C248.694 23.4405 249.038 23.3703 249.38 23.3999C249.617 23.3722 249.858 23.392 250.088 23.4582C250.317 23.5245 250.531 23.6358 250.718 23.7856C250.904 23.9355 251.058 24.1209 251.172 24.3311C251.286 24.5413 251.356 24.7721 251.38 25.0099V25.1299C250.779 24.8138 250.109 24.6491 249.43 24.6499C247.65 24.6499 245.83 25.6499 245.83 27.4699C245.848 27.8568 245.943 28.2361 246.11 28.5855C246.277 28.9348 246.513 29.247 246.803 29.5035C247.093 29.7601 247.432 29.9557 247.799 30.0787C248.166 30.2018 248.554 30.2498 248.94 30.2199C249.409 30.2459 249.877 30.1466 250.295 29.9322C250.714 29.7178 251.067 29.3961 251.32 28.9999H251.38V29.9999H253.18V25.1899C253.18 22.9999 251.52 21.7299 249.39 21.7299L249.35 21.7099ZM249.12 28.5599C248.51 28.5599 247.66 28.2499 247.66 27.4999C247.66 26.4999 248.72 26.1599 249.66 26.1599C250.254 26.1453 250.841 26.2903 251.36 26.5799C251.297 27.123 251.04 27.6249 250.635 27.9926C250.231 28.3604 249.707 28.569 249.16 28.5799L249.12 28.5599ZM259.74 21.9999L257.6 27.4199H257.54L255.32 21.9999H253.32L256.65 29.5799L254.75 33.7899H256.7L261.82 21.9999H259.74ZM242.94 29.9999H244.8V17.4999H242.94V29.9999Z" fill="white"/>
<path d="M156.72 19.4199L146.07 30.7199C146.186 31.1473 146.399 31.5423 146.692 31.8742C146.986 32.2062 147.351 32.4663 147.761 32.6345C148.171 32.8026 148.614 32.8744 149.056 32.8441C149.498 32.8138 149.927 32.6824 150.31 32.4599L162.31 25.5399L156.72 19.4199Z" fill="#EA4335"/>
<path d="M167.49 17.5L162.31 14.5L156.49 19.69L162.33 25.54L167.48 22.54C167.938 22.2948 168.321 21.93 168.588 21.4845C168.854 21.0389 168.995 20.5293 168.995 20.01C168.995 19.4907 168.854 18.9811 168.588 18.5355C168.321 18.09 167.938 17.7252 167.48 17.48L167.49 17.5Z" fill="#FBBC04"/>
<path d="M146.07 9.28027C146.017 9.51648 145.994 9.75831 146 10.0003V30.0003C146.002 30.2502 146.035 30.4989 146.1 30.7403L157.1 19.7403L146.07 9.28027Z" fill="#4285F4"/>
<path d="M156.8 19.9996L162.31 14.4896L150.31 7.54965C149.859 7.28165 149.345 7.14002 148.82 7.13965C148.187 7.14146 147.573 7.35082 147.071 7.73558C146.568 8.12035 146.206 8.65927 146.04 9.26965L156.8 19.9996Z" fill="#34A853"/>
</svg>
