<svg width="185" height="24" viewBox="0 0 185 24" fill="none" xmlns="http://www.w3.org/2000/svg">
<path d="M18.1479 5.01699H6.48094C4.19094 5.01699 2.33594 6.85199 2.33594 9.11599V14.884C2.33594 17.148 4.19194 18.984 6.48094 18.984H18.1479C20.4379 18.984 22.2929 17.148 22.2929 14.884V9.11599C22.2929 6.85199 20.4369 5.01599 18.1479 5.01599V5.01699ZM15.3449 12.28L9.88794 14.855C9.85465 14.871 9.81786 14.8784 9.78097 14.8763C9.74408 14.8743 9.70831 14.863 9.67697 14.8434C9.64563 14.8239 9.61975 14.7967 9.60174 14.7645C9.58372 14.7322 9.57416 14.6959 9.57394 14.659V9.34999C9.5746 9.31286 9.58466 9.27651 9.60316 9.24432C9.62166 9.21212 9.64801 9.18513 9.67976 9.16587C9.7115 9.1466 9.74761 9.13568 9.78471 9.13413C9.82181 9.13258 9.8587 9.14044 9.89194 9.15699L15.3499 11.892C15.3863 11.9101 15.4168 11.9381 15.4379 11.9728C15.4591 12.0075 15.47 12.0474 15.4695 12.0881C15.469 12.1287 15.457 12.1683 15.435 12.2025C15.413 12.2366 15.3817 12.2638 15.3449 12.281V12.28Z" fill="#E2E8F0"/>
<path d="M49.3819 5.865V8.613H47.3679V11.973H49.3819V21.959H53.5159V11.974H56.2909C56.2909 11.974 56.5509 10.363 56.6769 8.601H53.5329V6.303C53.5329 5.96 53.9829 5.498 54.4289 5.498H56.6829V2H53.6189C49.2789 2 49.3819 5.363 49.3819 5.865Z" fill="#E2E8F0"/>
<path d="M102.336 5.90701C101.586 6.23439 100.792 6.44905 99.9799 6.54401C100.833 6.04324 101.474 5.24912 101.784 4.31001C100.976 4.78034 100.095 5.11161 99.1769 5.29001C98.7905 4.88522 98.3256 4.5634 97.8107 4.34419C97.2958 4.12498 96.7416 4.01298 96.1819 4.01501C93.9159 4.01501 92.0789 5.82501 92.0789 8.05501C92.0789 8.37101 92.1149 8.68001 92.1849 8.97501C90.5595 8.89771 88.9681 8.48242 87.5121 7.75565C86.0562 7.02888 84.7677 6.00659 83.7289 4.75401C83.3648 5.36841 83.1734 6.06979 83.1749 6.78401C83.1756 7.45198 83.3428 8.10924 83.6612 8.6964C83.9797 9.28357 84.4394 9.78212 84.9989 10.147C84.3484 10.126 83.712 9.95234 83.1409 9.64001V9.69001C83.1409 11.648 84.5559 13.281 86.4309 13.653C86.0785 13.7465 85.7155 13.7939 85.3509 13.794C85.0859 13.794 84.8289 13.769 84.5779 13.719C84.846 14.5269 85.359 15.2313 86.0458 15.7344C86.7325 16.2374 87.5588 16.5141 88.4099 16.526C86.95 17.6506 85.1578 18.2581 83.3149 18.253C82.9829 18.253 82.6569 18.233 82.3359 18.197C84.2172 19.3877 86.3985 20.0183 88.6249 20.015C96.1719 20.015 100.298 13.858 100.298 8.51901L100.284 7.99601C101.089 7.42968 101.784 6.72186 102.336 5.90701Z" fill="#E2E8F0"/>
<path d="M136.353 2H128.283C126.706 2.00185 125.194 2.62914 124.079 3.74424C122.965 4.85933 122.338 6.37115 122.336 7.948V16.018C122.338 17.5948 122.965 19.1066 124.08 20.2215C125.195 21.3364 126.707 21.9634 128.284 21.965H136.354C137.931 21.9631 139.443 21.3359 140.557 20.2208C141.672 19.1057 142.299 17.5938 142.301 16.017V7.947C142.299 6.37015 141.672 4.85844 140.557 3.74353C139.442 2.62862 137.93 2.00159 136.353 2V2ZM140.293 16.017C140.293 16.5344 140.191 17.0468 139.993 17.5248C139.795 18.0028 139.505 18.4371 139.139 18.803C138.773 19.1689 138.339 19.4591 137.861 19.6571C137.383 19.8551 136.87 19.957 136.353 19.957H128.283C127.238 19.9567 126.236 19.5415 125.498 18.8026C124.759 18.0638 124.344 17.0618 124.344 16.017V7.947C124.344 6.90222 124.759 5.90032 125.498 5.16165C126.237 4.42297 127.239 4.008 128.284 4.008H136.354C137.399 4.00827 138.401 4.42349 139.139 5.16235C139.878 5.90122 140.293 6.90322 140.293 7.948V16.018V16.017Z" fill="#E2E8F0"/>
<path d="M132.318 6.819C130.949 6.82112 129.638 7.36579 128.67 8.33361C127.702 9.30143 127.158 10.6134 127.156 11.982C127.158 13.3509 127.702 14.6633 128.67 15.6314C129.638 16.5995 130.95 17.1441 132.319 17.146C133.688 17.1444 135.001 16.5998 135.969 15.6317C136.937 14.6637 137.481 13.3511 137.483 11.982C137.481 10.6131 136.936 9.30088 135.968 8.33319C134.999 7.3655 133.687 6.82132 132.318 6.82V6.819ZM132.318 15.138C131.481 15.138 130.679 14.8056 130.087 14.2139C129.495 13.6222 129.163 12.8198 129.163 11.983C129.163 11.1462 129.495 10.3438 130.087 9.75208C130.679 9.1604 131.481 8.828 132.318 8.828C133.155 8.828 133.957 9.1604 134.549 9.75208C135.141 10.3438 135.473 11.1462 135.473 11.983C135.473 12.8198 135.141 13.6222 134.549 14.2139C133.957 14.8056 133.155 15.138 132.318 15.138Z" fill="#E2E8F0"/>
<path d="M137.492 8.095C138.175 8.095 138.729 7.54118 138.729 6.858C138.729 6.17483 138.175 5.621 137.492 5.621C136.809 5.621 136.255 6.17483 136.255 6.858C136.255 7.54118 136.809 8.095 137.492 8.095Z" fill="#E2E8F0"/>
<path d="M182.295 13.719V21.098H178.017V14.213C178.017 12.483 177.398 11.303 175.85 11.303C174.668 11.303 173.964 12.099 173.655 12.868C173.542 13.143 173.513 13.526 173.513 13.911V21.098H169.233C169.233 21.098 169.291 9.438 169.233 8.229H173.513V10.053L173.485 10.095H173.513V10.053C174.081 9.178 175.096 7.927 177.369 7.927C180.184 7.927 182.295 9.767 182.295 13.719ZM164.757 2.026C163.294 2.026 162.336 2.986 162.336 4.249C162.336 5.484 163.266 6.473 164.701 6.473H164.729C166.222 6.473 167.149 5.484 167.149 4.249C167.123 2.986 166.223 2.026 164.758 2.026H164.757ZM162.59 21.098H166.868V8.229H162.59V21.098Z" fill="#E2E8F0"/>
</svg>
